<svg width="64" height="59" viewBox="0 0 64 59" fill="none" xmlns="http://www.w3.org/2000/svg">
<path d="M8.70711 58.2071C8.31658 58.5976 7.68342 58.5976 7.29289 58.2071L0.928932 51.8431C0.538408 51.4526 0.538408 50.8195 0.928932 50.4289C1.31946 50.0384 1.95262 50.0384 2.34315 50.4289L8 56.0858L13.6569 50.4289C14.0474 50.0384 14.6805 50.0384 15.0711 50.4289C15.4616 50.8195 15.4616 51.4526 15.0711 51.8431L8.70711 58.2071ZM64 2.5H38V0.5H64V2.5ZM9 31.5V57.5H7V31.5H9ZM38 2.5C21.9837 2.5 9 15.4837 9 31.5H7C7 14.3792 20.8792 0.5 38 0.5V2.5Z" fill="black"/>
</svg>
