<svg width="6" height="23" viewBox="0 0 6 23" fill="none" xmlns="http://www.w3.org/2000/svg">
<path d="M3 17.037C3.79565 17.037 4.55871 17.3512 5.12132 17.9103C5.68393 18.4694 6 19.2278 6 20.0185C6 20.8093 5.68393 21.5676 5.12132 22.1267C4.55871 22.6859 3.79565 23 3 23C2.20435 23 1.44129 22.6859 0.87868 22.1267C0.316071 21.5676 -5.96046e-08 20.8093 -5.96046e-08 20.0185C-5.96046e-08 19.2278 0.316071 18.4694 0.87868 17.9103C1.44129 17.3512 2.20435 17.037 3 17.037ZM3 8.51852C3.79565 8.51852 4.55871 8.83264 5.12132 9.39177C5.68393 9.95091 6 10.7093 6 11.5C6 12.2907 5.68393 13.0491 5.12132 13.6082C4.55871 14.1674 3.79565 14.4815 3 14.4815C2.20435 14.4815 1.44129 14.1674 0.87868 13.6082C0.316071 13.0491 -5.96046e-08 12.2907 -5.96046e-08 11.5C-5.96046e-08 10.7093 0.316071 9.95091 0.87868 9.39177C1.44129 8.83264 2.20435 8.51852 3 8.51852ZM-5.96046e-08 2.98148C-5.96046e-08 2.19074 0.316071 1.43239 0.87868 0.873256C1.44129 0.314119 2.20435 0 3 0C3.79565 0 4.55871 0.314119 5.12132 0.873256C5.68393 1.43239 6 2.19074 6 2.98148C6 3.77222 5.68393 4.53057 5.12132 5.08971C4.55871 5.64884 3.79565 5.96296 3 5.96296C2.20435 5.96296 1.44129 5.64884 0.87868 5.08971C0.316071 4.53057 -5.96046e-08 3.77222 -5.96046e-08 2.98148Z" fill="white"/>
</svg>
