<svg width="40" height="35" viewBox="0 0 40 35" fill="none" xmlns="http://www.w3.org/2000/svg">
<path d="M20.1903 0C13.5681 0 8.18039 5.23369 8.18039 11.6667C8.18039 14.7201 9.93842 17.0011 11.6397 19.2078C12.9977 20.9707 14.2767 22.6497 14.5014 24.5614V28.8596C14.5014 31.0208 16.1533 32.8101 18.294 33.1099V33.7719C18.294 34.4483 18.8619 35 19.5582 35H20.8224C21.5187 35 22.0866 34.4483 22.0866 33.7719V33.1099C24.2274 32.8101 25.8793 31.0208 25.8793 28.8596V25.1131C25.8891 22.9664 27.2842 21.141 28.7632 19.2078C30.4546 17.0011 32.2003 14.7201 32.2003 11.6667C32.2003 5.23369 26.8126 0 20.1903 0ZM20.1903 1.22807C26.1163 1.22807 30.9361 5.91009 30.9361 11.6667C30.9361 14.3147 29.3163 16.4302 27.7509 18.4762C26.3336 20.3279 24.8718 22.2348 24.6447 24.523H20.8224V22.7193C20.8224 22.3811 20.5385 22.1053 20.1903 22.1053C19.8422 22.1053 19.5582 22.3811 19.5582 22.7193V24.5254H15.7829C15.5533 22.2372 14.0792 20.3255 12.652 18.4714C11.0742 16.4254 9.44459 14.3123 9.44459 11.6667C9.44459 5.91009 14.2644 1.22807 20.1903 1.22807ZM20.1039 3.06778C18.415 3.08217 16.7656 3.56428 15.331 4.48054C15.0397 4.66523 14.9607 5.0466 15.1533 5.32963C15.2743 5.50953 15.4743 5.60547 15.6792 5.60547C15.8002 5.60547 15.9187 5.57429 16.0273 5.50473C17.6644 4.45895 19.6323 4.07518 21.5706 4.42057C21.9163 4.48054 22.2447 4.25987 22.3064 3.92647C22.3706 3.59307 22.1434 3.27405 21.8002 3.21409C21.2348 3.11095 20.6694 3.06298 20.1039 3.06778ZM24.5262 4.22149C24.2842 4.18791 24.0299 4.29585 23.8941 4.51172C23.7138 4.80435 23.8101 5.18092 24.1113 5.35602C24.6323 5.66303 25.1188 6.03241 25.5533 6.45696C25.6768 6.57689 25.8398 6.63686 26.0002 6.63686C26.1632 6.63686 26.3262 6.57689 26.4496 6.45696C26.6965 6.21711 26.6965 5.82854 26.4496 5.58868C25.9385 5.09457 25.3731 4.66283 24.7632 4.30544C24.6891 4.26227 24.6076 4.23348 24.5262 4.22149ZM3.77048 4.61246C3.52357 4.61726 3.29147 4.76117 3.1927 4.99623C3.0643 5.31044 3.21986 5.67023 3.54332 5.79496L5.88901 6.71601C5.96556 6.74719 6.04457 6.76158 6.12358 6.76158C6.37297 6.76158 6.61247 6.61527 6.71124 6.37781C6.84211 6.0612 6.68408 5.70381 6.36062 5.57669L4.0174 4.65563C3.93591 4.62445 3.85196 4.61006 3.77048 4.61246ZM36.6102 4.61246C36.5287 4.61006 36.4448 4.62445 36.3633 4.65563L34.02 5.57669C33.6966 5.70381 33.5386 6.0612 33.6694 6.37781C33.7682 6.61527 34.0077 6.76158 34.2571 6.76158C34.3361 6.76158 34.4151 6.74719 34.4917 6.71601L36.8373 5.79496C37.1608 5.67023 37.3164 5.31044 37.188 4.99623C37.0892 4.76117 36.8571 4.61726 36.6102 4.61246ZM1.22726 11.0526C0.879106 11.0526 0.595154 11.3285 0.595154 11.6667C0.595154 12.0049 0.879106 12.2807 1.22726 12.2807H5.01987C5.36802 12.2807 5.65197 12.0049 5.65197 11.6667C5.65197 11.3285 5.36802 11.0526 5.01987 11.0526H1.22726ZM35.3608 11.0526C35.0126 11.0526 34.7287 11.3285 34.7287 11.6667C34.7287 12.0049 35.0126 12.2807 35.3608 12.2807H39.1534C39.5016 12.2807 39.7855 12.0049 39.7855 11.6667C39.7855 11.3285 39.5016 11.0526 39.1534 11.0526H35.3608ZM17.6619 13.5088C17.5014 13.5088 17.3385 13.5687 17.215 13.6887C16.9681 13.9285 16.9681 14.3171 17.215 14.5569L18.4792 15.785C18.6027 15.9049 18.7632 15.9649 18.9261 15.9649C19.0891 15.9649 19.2496 15.9049 19.373 15.785C19.62 15.5452 19.62 15.1566 19.373 14.9167L18.1088 13.6887C17.9854 13.5687 17.8224 13.5088 17.6619 13.5088ZM22.7187 13.5088C22.5583 13.5088 22.3953 13.5687 22.2718 13.6887L19.7434 16.1448C19.6249 16.2599 19.5582 16.4158 19.5582 16.5789V20.2632C19.5582 20.6014 19.8422 20.8772 20.1903 20.8772C20.5385 20.8772 20.8224 20.6014 20.8224 20.2632V16.8332L23.1657 14.5569C23.4126 14.3171 23.4126 13.9285 23.1657 13.6887C23.0422 13.5687 22.8792 13.5088 22.7187 13.5088ZM6.13593 16.5718C6.05198 16.5718 5.96803 16.5861 5.88901 16.6173L3.54332 17.5384C3.21986 17.6631 3.0643 18.0229 3.1927 18.3371C3.29394 18.577 3.53097 18.7209 3.78036 18.7209C3.85937 18.7209 3.94085 18.7065 4.0174 18.6777L6.36062 17.7566C6.68408 17.6295 6.84211 17.2721 6.71124 16.9555C6.61247 16.7205 6.38037 16.5765 6.13593 16.5718ZM34.2447 16.5741C34.0003 16.5789 33.7682 16.7229 33.6694 16.9579C33.5386 17.2721 33.6966 17.6319 34.02 17.759L36.3633 18.6777C36.4398 18.7089 36.5213 18.7209 36.6003 18.7209C36.8497 18.7209 37.0867 18.577 37.188 18.3371C37.3164 18.0229 37.1608 17.6655 36.8373 17.5384L34.4917 16.6173C34.4126 16.5861 34.3287 16.5718 34.2447 16.5741ZM15.7656 25.7895H24.6151V26.4755L15.7656 27.55V25.7895ZM24.6151 27.7131V28.8596C24.6151 28.8836 24.6076 28.9076 24.6076 28.934L18.1879 29.7135C17.8422 29.7543 17.5977 30.0613 17.6422 30.3971C17.6817 30.7089 17.9533 30.9344 18.2669 30.9344C18.294 30.9344 18.3187 30.9344 18.3459 30.9296L24.2792 30.21C23.7632 31.2246 22.6965 31.9298 21.4545 31.9298H18.9261C17.1829 31.9298 15.7656 30.553 15.7656 28.8596V28.7877L24.6151 27.7131ZM19.5582 33.1579H20.8224V33.7719H19.5582V33.1579Z" fill="#808080"/>
</svg>
