<svg width="35" height="35" viewBox="0 0 35 35" fill="none" xmlns="http://www.w3.org/2000/svg">
<path d="M28.4375 14.2188C28.4375 17.3564 27.4189 20.2549 25.7031 22.6064L34.3574 31.2676C35.2119 32.1221 35.2119 33.5098 34.3574 34.3643C33.5029 35.2188 32.1152 35.2188 31.2607 34.3643L22.6064 25.7031C20.2549 27.4258 17.3564 28.4375 14.2188 28.4375C6.36426 28.4375 0 22.0732 0 14.2188C0 6.36426 6.36426 0 14.2188 0C22.0732 0 28.4375 6.36426 28.4375 14.2188ZM14.2188 24.0625C15.5114 24.0625 16.7915 23.8079 17.9858 23.3132C19.1801 22.8185 20.2653 22.0934 21.1793 21.1793C22.0934 20.2653 22.8185 19.1801 23.3132 17.9858C23.8079 16.7915 24.0625 15.5114 24.0625 14.2188C24.0625 12.9261 23.8079 11.646 23.3132 10.4517C22.8185 9.25741 22.0934 8.17224 21.1793 7.25817C20.2653 6.34409 19.1801 5.61901 17.9858 5.12431C16.7915 4.62962 15.5114 4.375 14.2188 4.375C12.9261 4.375 11.646 4.62962 10.4517 5.12431C9.25741 5.61901 8.17224 6.34409 7.25817 7.25817C6.34409 8.17224 5.61901 9.25741 5.12431 10.4517C4.62962 11.646 4.375 12.9261 4.375 14.2188C4.375 15.5114 4.62962 16.7915 5.12431 17.9858C5.61901 19.1801 6.34409 20.2653 7.25817 21.1793C8.17224 22.0934 9.25741 22.8185 10.4517 23.3132C11.646 23.8079 12.9261 24.0625 14.2188 24.0625Z" fill="black" fill-opacity="0.7"/>
</svg>
